<?xml version="1.0" encoding="utf-8"?>
<!-- Generator: Adobe Illustrator 21.0.0, SVG Export Plug-In . SVG Version: 6.00 Build 0)  -->
<svg version="1.1" id="圖層_2" xmlns="http://www.w3.org/2000/svg" xmlns:xlink="http://www.w3.org/1999/xlink" x="0px" y="0px"
	 viewBox="0 0 283.5 283.5" style="enable-background:new 0 0 283.5 283.5;" xml:space="preserve">
<style type="text/css">
	.st0{fill:#FFFFFF;}
</style>
<g>
	<path class="st0" d="M245.3,101.1l-12,4.4c3.9,10.6,5.9,21.9,5.9,33.3c0,53-43.1,96.1-96.1,96.1S47,191.9,47,138.9
		s43.1-96.1,96.1-96.1c25.4,0,49.4,9.8,67.5,27.7l9-9.1C199.1,41.1,172,30,143.2,30c-60,0-108.9,48.8-108.9,108.9
		s48.8,108.9,108.9,108.9S252,198.9,252,138.9C252,125.9,249.8,113.2,245.3,101.1z"/>
	<path class="st0" d="M96,115l-9,9l49.3,49.3c2.1,2.1,4.8,3.1,7.5,3.1c2.7,0,5.4-1,7.5-3.1l93-93l-9-9l-91.5,91.5L96,115z"/>
</g>
</svg>
