<?xml version="1.0" encoding="utf-8"?>
<!-- Generator: Adobe Illustrator 21.0.0, SVG Export Plug-In . SVG Version: 6.00 Build 0)  -->
<svg version="1.1" id="圖層_2" xmlns="http://www.w3.org/2000/svg" xmlns:xlink="http://www.w3.org/1999/xlink" x="0px" y="0px"
	 viewBox="0 0 283.5 283.5" style="enable-background:new 0 0 283.5 283.5;" xml:space="preserve">
<style type="text/css">
	.st0{fill:#FFFFFF;}
</style>
<g>
	<path class="st0" d="M147.1,141.9c32.9,0,59.7-26.8,59.7-59.7S180,22.5,147.1,22.5S87.4,49.3,87.4,82.2S114.2,141.9,147.1,141.9z
		 M147.1,35.8c25.6,0,46.5,20.8,46.5,46.5s-20.8,46.5-46.5,46.5s-46.5-20.8-46.5-46.5S121.5,35.8,147.1,35.8z"/>
	<path class="st0" d="M202.1,165.8H92.2c-23.5,0-42.6,19.1-42.6,42.6v39.8h195.2v-39.8C244.7,185,225.6,165.8,202.1,165.8z
		 M231.5,235.1H62.8v-26.6c0-16.2,13.2-29.4,29.4-29.4h109.9c16.2,0,29.4,13.2,29.4,29.4V235.1z"/>
</g>
</svg>
