<?xml version="1.0" encoding="utf-8"?>
<!-- Generator: Adobe Illustrator 21.0.0, SVG Export Plug-In . SVG Version: 6.00 Build 0)  -->
<svg version="1.1" id="圖層_2" xmlns="http://www.w3.org/2000/svg" xmlns:xlink="http://www.w3.org/1999/xlink" x="0px" y="0px"
	 viewBox="0 0 283.5 283.5" style="enable-background:new 0 0 283.5 283.5;" xml:space="preserve">
<style type="text/css">
	.st0{fill:#FFFFFF;}
</style>
<g>
	<path class="st0" d="M267.2,73.5c-1.6-2.2-4.2-3.5-7.1-3.5H72l-2.6-11.7c-1-4.8-5.5-8.4-10.4-8.4H16.1v11.6h42.1l25.5,115.9
		c1,4.8,5.5,8.4,10.4,8.4h146.1v-11.6H94.9l-5.7-25.8h147.1c4.6,0,9.1-3.2,10.7-7.5l21.2-59.5C269.1,78.7,268.8,75.8,267.2,73.5z
		 M236.1,136.8C236.1,136.8,236.1,136.8,236.1,136.8l-149.4,0L74.5,81.6h181.2L236.1,136.8z"/>
	<path class="st0" d="M104.9,193.9c-13.9,0-25.2,11.3-25.2,25.2c0,13.9,11.3,25.2,25.2,25.2s25.2-11.3,25.2-25.2
		C130.1,205.2,118.7,193.9,104.9,193.9z M104.9,232.7c-7.5,0-13.6-6.1-13.6-13.6c0-7.5,6.1-13.6,13.6-13.6c7.5,0,13.6,6.1,13.6,13.6
		C118.4,226.6,112.3,232.7,104.9,232.7z"/>
	<path class="st0" d="M220.8,193.9c-13.9,0-25.2,11.3-25.2,25.2c0,13.9,11.3,25.2,25.2,25.2S246,233,246,219.1
		C246,205.2,234.7,193.9,220.8,193.9z M220.8,232.7c-7.5,0-13.6-6.1-13.6-13.6c0-7.5,6.1-13.6,13.6-13.6c7.5,0,13.6,6.1,13.6,13.6
		C234.4,226.6,228.3,232.7,220.8,232.7z"/>
</g>
</svg>
