<?xml version="1.0" encoding="utf-8"?>
<!-- Generator: Adobe Illustrator 21.0.0, SVG Export Plug-In . SVG Version: 6.00 Build 0)  -->
<svg version="1.1" id="圖層_2" xmlns="http://www.w3.org/2000/svg" xmlns:xlink="http://www.w3.org/1999/xlink" x="0px" y="0px"
	 viewBox="0 0 283.5 283.5" style="enable-background:new 0 0 283.5 283.5;" xml:space="preserve">
<style type="text/css">
	.st0{fill:#FFFFFF;}
</style>
<g>
	<path class="st0" d="M217,160.4c-5,0-9.7,1.5-13.8,4.2c-4.1-2.7-8.8-4.2-13.8-4.2c-13.7,0-24.9,11.2-24.9,24.9
		c0,13.7,11.2,24.9,24.9,24.9c5,0,9.7-1.5,13.8-4.2c4.1,2.7,8.8,4.2,13.8,4.2c13.7,0,24.9-11.2,24.9-24.9
		C241.9,171.5,230.7,160.4,217,160.4z M217,200.2c-3.9,0-7.6-1.5-10.4-4.2l-3.5-3.3l-3.5,3.3c-2.8,2.7-6.5,4.2-10.4,4.2
		c-8.2,0-14.9-6.7-14.9-14.9c0-8.2,6.7-14.9,14.9-14.9c3.9,0,7.6,1.5,10.4,4.2l3.5,3.3l3.5-3.3c2.8-2.7,6.5-4.2,10.4-4.2
		c8.2,0,14.9,6.7,14.9,14.9C231.9,193.5,225.2,200.2,217,200.2z"/>
	<path class="st0" d="M259.2,60.3H25.8c-4.6,0-8.3,3.7-8.3,8.3V222c0,4.6,3.7,8.3,8.3,8.3h233.4c4.6,0,8.3-3.7,8.3-8.3V68.6
		C267.5,64,263.8,60.3,259.2,60.3z M257.5,70.3v30H27.4v-30H257.5z M257.5,110.2v30.1H27.4v-30.1H257.5z M27.4,220.3v-70h230.1v70
		H27.4z"/>
</g>
</svg>
