<?xml version="1.0" encoding="utf-8"?>
<!-- Generator: Adobe Illustrator 21.0.0, SVG Export Plug-In . SVG Version: 6.00 Build 0)  -->
<svg version="1.1" id="圖層_2" xmlns="http://www.w3.org/2000/svg" xmlns:xlink="http://www.w3.org/1999/xlink" x="0px" y="0px"
	 viewBox="0 0 283.5 283.5" style="enable-background:new 0 0 283.5 283.5;" xml:space="preserve">
<style type="text/css">
	.st0{fill:#FFFFFF;}
</style>
<g>
	<path class="st0" d="M126,190.7l-36.6-36.6l-6.9,6.9l37.8,37.8c1.6,1.6,3.7,2.4,5.8,2.4s4.2-0.8,5.8-2.4l71.3-71.3l-6.9-6.9
		L126,190.7z"/>
	<circle class="st0" cx="236.6" cy="87.5" r="9.8"/>
	<circle class="st0" cx="48.1" cy="87.5" r="6.5"/>
	<circle class="st0" cx="70.5" cy="87.5" r="6.5"/>
	<circle class="st0" cx="93" cy="87.5" r="6.5"/>
	<path class="st0" d="M257.3,62.2H28.1c-4.5,0-8.1,3.7-8.1,8.1v150.6c0,4.5,3.7,8.1,8.1,8.1h229.2c4.5,0,8.1-3.7,8.1-8.1V70.3
		C265.5,65.8,261.8,62.2,257.3,62.2z M255.7,71.9v29.5H29.8V71.9H255.7z M29.8,219.3V111.2h225.9v108.1H29.8z"/>
</g>
</svg>
