<?xml version="1.0" encoding="utf-8"?>
<!-- Generator: Adobe Illustrator 21.0.0, SVG Export Plug-In . SVG Version: 6.00 Build 0)  -->
<svg version="1.1" id="圖層_2" xmlns="http://www.w3.org/2000/svg" xmlns:xlink="http://www.w3.org/1999/xlink" x="0px" y="0px"
	 viewBox="0 0 283.5 283.5" style="enable-background:new 0 0 283.5 283.5;" xml:space="preserve">
<style type="text/css">
	.st0{fill:#FFFFFF;}
</style>
<g>
	<path class="st0" d="M254.3,145.4c0-9-1.1-18-3.4-26.7l19.8-11.4l-28.8-49.9l-19.8,11.4c-13-12.7-28.8-21.9-46.3-26.7V19.2h-28.8
		h-28.8v22.9C100.8,46.9,85,56.1,72,68.8L52.2,57.3l-28.8,49.9l19.8,11.4c-2.2,8.7-3.4,17.7-3.4,26.7s1.1,18,3.4,26.7l-19.8,11.4
		l28.8,49.9L72,221.9c13,12.7,28.8,21.9,46.3,26.7v22.9h42.6h15v-22.9c17.5-4.8,33.3-14,46.3-26.7l19.8,11.4l28.8-49.9l-19.8-11.4
		C253.1,163.4,254.3,154.4,254.3,145.4z M235.3,117.4c2.9,9,4.3,18.5,4.3,28s-1.5,19-4.3,28l-1.8,5.6l17.2,9.9l-14.1,24.4l-17.2-9.9
		l-4,4.4c-13,14.2-29.7,23.9-48.5,28l-5.8,1.3v19.8h-0.3H133V237l-5.8-1.3c-18.7-4.1-35.5-13.8-48.5-28l-4-4.4l-17.2,9.9l-14.1-24.4
		l17.2-9.9l-1.8-5.6c-2.9-9-4.3-18.5-4.3-28s1.5-19,4.3-28l1.8-5.6l-17.2-9.9l14.1-24.4l17.2,9.9l4-4.4c13-14.2,29.7-23.9,48.5-28
		l5.8-1.3V33.9h14.1h14.1v19.8l5.8,1.3c18.7,4.1,35.5,13.8,48.5,28l4,4.4l17.2-9.9l14.1,24.4l-17.2,9.9L235.3,117.4z"/>
	<path class="st0" d="M147.1,81.1c-35.5,0-64.3,28.8-64.3,64.3s28.8,64.3,64.3,64.3c35.5,0,64.3-28.8,64.3-64.3
		S182.5,81.1,147.1,81.1z M147.1,195c-27.4,0-49.6-22.3-49.6-49.6s22.3-49.6,49.6-49.6s49.6,22.3,49.6,49.6S174.4,195,147.1,195z"/>
</g>
</svg>
