<?xml version="1.0" encoding="utf-8"?>
<!-- Generator: Adobe Illustrator 21.0.0, SVG Export Plug-In . SVG Version: 6.00 Build 0)  -->
<svg version="1.1" id="圖層_2" xmlns="http://www.w3.org/2000/svg" xmlns:xlink="http://www.w3.org/1999/xlink" x="0px" y="0px"
	 viewBox="0 0 283.5 283.5" style="enable-background:new 0 0 283.5 283.5;" xml:space="preserve">
<style type="text/css">
	.st0{fill:#FFFFFF;}
</style>
<g>
	<path class="st0" d="M154.4,28.6C92,28.6,41.2,79.3,41.2,141.7c0,10.2,1.4,20.3,4.1,30.1l-29.3,50.8l5.7,9.9h65.3
		c19.6,14.6,42.9,22.3,67.4,22.3c62.4,0,113.2-50.8,113.2-113.2S216.8,28.6,154.4,28.6z M154.4,241.7c-22.4,0-43.5-7.2-61.2-20.9
		l-4-1.4H33l25-43.4l0.6-5.2c-2.9-9.4-4.3-19.2-4.3-29.1c0-55.1,44.9-100,100-100s100,44.9,100,100S209.5,241.7,154.4,241.7z"/>
	<rect x="98.1" y="81.9" class="st0" width="109.2" height="13.2"/>
	<rect x="98.1" y="186.2" class="st0" width="109.2" height="13.2"/>
	<rect x="98.1" y="135.1" class="st0" width="109.2" height="13.2"/>
</g>
</svg>
