<?xml version="1.0" encoding="utf-8"?>
<!-- Generator: Adobe Illustrator 21.0.0, SVG Export Plug-In . SVG Version: 6.00 Build 0)  -->
<svg version="1.1" id="圖層_2" xmlns="http://www.w3.org/2000/svg" xmlns:xlink="http://www.w3.org/1999/xlink" x="0px" y="0px"
	 viewBox="0 0 283.5 283.5" style="enable-background:new 0 0 283.5 283.5;" xml:space="preserve">
<style type="text/css">
	.st0{fill:#FFFFFF;}
</style>
<g>
	<path class="st0" d="M262.6,202.6L201,166.7l-36.8,33.1c-43.2-27.3-70.8-67.8-79.4-81.7l35.9-32.3L79.3,14.3l-5.7,2
		c-2.2,0.8-22,7.9-29.7,13.1c-6.2,4.2-12.5,10.8-16.7,17.7C8.5,77.5,20.4,123.3,37.7,156c17.8,33.6,47.4,64.9,83.1,88.1
		c14.3,9.3,36.5,20.9,61.3,23.6c3.6,0.4,7.2,0.6,10.7,0.6c20.3,0,38-6.8,52.8-20.3c5.9-5.4,10.6-11.3,13.9-17.6
		c0.6-1.1,2.6-5.6,4.3-10.1C266,214.4,269.1,206.4,262.6,202.6z M246.6,223.6c-2.5,4.8-6.2,9.4-10.8,13.6
		c-12.3,11.2-47.4,33.2-107.1-5.4C95,210,67.3,180.7,50.6,149.2c-14.8-27.8-26.5-69.3-11-94.5c3.1-5.1,7.9-10.2,12.4-13.2
		c3.9-2.7,13.8-6.7,20.8-9.4L102.1,83l-35.9,32.3l2.8,5.1c1.3,2.4,33.3,59.8,92.2,94.9l4.6,2.7l37-33.3l48.3,28.1
		C249.7,216.5,247.4,222.1,246.6,223.6z"/>
	<path class="st0" d="M236.7,118.1h14.5c0-51.1-41.6-92.7-92.7-92.7V40C201.7,40,236.7,75,236.7,118.1z"/>
	<path class="st0" d="M212.5,118.1H227c0-37.7-30.7-68.4-68.4-68.4v14.5C188.3,64.2,212.5,88.4,212.5,118.1z"/>
	<path class="st0" d="M188.2,118.1h14.5c0-24.4-19.8-44.2-44.2-44.2v14.5C174.9,88.4,188.2,101.7,188.2,118.1z"/>
</g>
</svg>
