<?xml version="1.0" encoding="utf-8"?>
<!-- Generator: Adobe Illustrator 21.0.0, SVG Export Plug-In . SVG Version: 6.00 Build 0)  -->
<svg version="1.1" id="圖層_2" xmlns="http://www.w3.org/2000/svg" xmlns:xlink="http://www.w3.org/1999/xlink" x="0px" y="0px"
	 viewBox="0 0 283.5 283.5" style="enable-background:new 0 0 283.5 283.5;" xml:space="preserve">
<style type="text/css">
	.st0{fill:#FFFFFF;}
</style>
<g>
	<path class="st0" d="M110.4,151.2c10.7,0,20.8-2.8,29.6-7.7c9,5,19.2,7.7,29.6,7.7c33.7,0,61.1-27.4,61.1-61.1S203.3,29,169.6,29
		c-10.5,0-20.6,2.7-29.6,7.7c-8.8-4.9-18.9-7.7-29.6-7.7c-33.7,0-61.1,27.4-61.1,61.1S76.7,151.2,110.4,151.2z M169.6,42.5
		c26.2,0,47.6,21.3,47.6,47.6s-21.3,47.6-47.6,47.6c-6,0-11.8-1.1-17.2-3.2c11.8-11.1,19.1-26.9,19.1-44.3
		c0-17.4-7.4-33.2-19.1-44.3C157.8,43.6,163.6,42.5,169.6,42.5z M110.4,42.5c26.2,0,47.6,21.3,47.6,47.6s-21.3,47.6-47.6,47.6
		s-47.6-21.3-47.6-47.6S84.1,42.5,110.4,42.5z"/>
	<path class="st0" d="M225.8,161.3h-58.6v0c-0.2,0-0.4,0-0.6,0H54.1c-24.1,0-43.6,19.6-43.6,43.6V260h193h6.8h59.2V205
		C269.5,180.9,249.9,161.3,225.8,161.3z M196.7,246.5H24V205c0-16.6,13.5-30.1,30.1-30.1h112.5c16.6,0,30.1,13.5,30.1,30.1V246.5z
		 M255.9,246.5h-45.7V205c0-11.7-4.6-22.3-12.1-30.1h27.7c16.6,0,30.1,13.5,30.1,30.1V246.5z"/>
</g>
</svg>
