<?xml version="1.0" encoding="utf-8"?>
<!-- Generator: Adobe Illustrator 21.0.0, SVG Export Plug-In . SVG Version: 6.00 Build 0)  -->
<svg version="1.1" id="分離模式" xmlns="http://www.w3.org/2000/svg" xmlns:xlink="http://www.w3.org/1999/xlink" x="0px"
	 y="0px" viewBox="0 0 283.5 283.5" style="enable-background:new 0 0 283.5 283.5;" xml:space="preserve">
<style type="text/css">
	.st0{fill:#FFFFFF;}
</style>
<path class="st0" d="M230.2,38.7h-4.7h-24.9h-4.7h-28.1H163h-29.6h-4.7h-28.1h-4.7H67.8h-4.7H24.4v37.5c0,1.2-0.1,2.8-0.1,5
	c0,3.6,0,8.8,0,15.1c0,12.5,0,29,0,45.6c0,25.6,0.1,51.2,0.1,61.5h0v41.5h34h4.7h28.1h4.7H124h4.7h29.6h4.7h28.1h4.7h29.7h4.7h39.1
	v-32v-4.7V75.4v-4.7v-32H230.2z M120.1,181.7v-79.9l68,40.6L120.1,181.7z M225.5,48.1v22.6h-24.9V48.1H225.5z M191.1,48.1v22.6
	h-23.4V48.1H191.1z M158.3,48.1v22.6h-24.9V48.1H158.3z M124,48.1v22.6h-23.4V48.1H124z M91.2,48.1v22.6H67.8V48.1H91.2z M58.4,48.1
	v22.6H33.8V48.1H58.4z M33.8,235.4v-22.6h24.5v22.6H33.8z M67.8,235.4v-22.6h23.4v22.6H67.8z M100.6,235.4v-22.6H124v22.6H100.6z
	 M133.4,235.4v-22.6h24.9v22.6H133.4z M167.8,235.4v-22.6h23.4v22.6H167.8z M200.6,235.4v-22.6h24.9v22.6H200.6z M259.8,235.4h-24.9
	v-22.6h24.9V235.4z M234.9,70.7V48.1h24.9v22.6H234.9z"/>
</svg>
