<?xml version="1.0" encoding="utf-8"?>
<!-- Generator: Adobe Illustrator 21.0.0, SVG Export Plug-In . SVG Version: 6.00 Build 0)  -->
<svg version="1.1" id="分離模式" xmlns="http://www.w3.org/2000/svg" xmlns:xlink="http://www.w3.org/1999/xlink" x="0px"
	 y="0px" viewBox="0 0 283.5 283.5" style="enable-background:new 0 0 283.5 283.5;" xml:space="preserve">
<style type="text/css">
	.st0{fill:#FFFFFF;}
</style>
<g>
	<path class="st0" d="M116.9,19v27.7l-23,14.2L70.2,46.4V19c-5.5,3.6-13.4,8.7-18,15c-6.1,8.3-8.7,18.5-8.7,29.6
		c0,10.4,3.6,20.1,9.1,28.1c4.7,7,11.7,12.7,19.2,16.5c3.6,1.8,7.2,3.2,11.8,4.1l-2.2,134.4c0,6.3,7.4,11.4,13.7,11.4
		c6.3,0,13.7-5.1,13.7-11.4l-2.3-134.4c4.5-0.9,7.5-2.3,11.1-4.1c7.6-3.9,14-9.7,18.7-16.7c5.3-8,7.7-17.5,7.7-27.8
		c0-11-4.2-21.1-10.2-29.4C129.1,27.9,123.8,22.7,116.9,19z M95,246.2c-3.5,0-6.4-2.9-6.4-6.4c0-3.5,2.8-6.4,6.4-6.4
		c3.5,0,6.4,2.8,6.4,6.4C101.4,243.3,98.5,246.2,95,246.2z"/>
	<path class="st0" d="M222.5,181.9l7.3-34.1h-12.1V62.8h9.4L214.5,17h-10.9h-10.9L180,62.8h9.4v84.9h-12.1l7.3,34.1h-8.2l-0.5,64.4
		c0,12,6.7,12,11.4,12h16.2h16.2c4.7,0,11.4,0,11.4-12v-64.4H222.5z M199.9,245h-9.4v-56.1h9.4V245z M216.3,245h-9.4v-56.1h9.4V245z
		"/>
</g>
</svg>
