<?xml version="1.0" encoding="utf-8"?>
<!-- Generator: Adobe Illustrator 21.0.0, SVG Export Plug-In . SVG Version: 6.00 Build 0)  -->
<svg version="1.1" id="分離模式" xmlns="http://www.w3.org/2000/svg" xmlns:xlink="http://www.w3.org/1999/xlink" x="0px"
	 y="0px" viewBox="0 0 283.5 283.5" style="enable-background:new 0 0 283.5 283.5;" xml:space="preserve">
<style type="text/css">
	.st0{fill:#FFFFFF;}
</style>
<g>
	<path class="st0" d="M227.9,74.6l-4.5,7.5c17.9,10.6,29,30,29,50.7c0,20.8-11,40.3-28.7,50.8l4.5,7.5c20.4-12.1,33-34.4,33-58.3
		C261.2,109.1,248.4,86.8,227.9,74.6z"/>
	<path class="st0" d="M211.3,85.6l-4.5,7.5c14.1,8.3,22.8,23.5,22.8,39.7c0,16.4-8.6,31.6-22.5,39.9l4.5,7.5
		c16.5-9.8,26.8-28,26.8-47.4C238.3,113.6,228,95.5,211.3,85.6z"/>
	<path class="st0" d="M46.7,177.1V201c0,8.3,5.6,11.3,9.3,11.3c5.8,0,7.8-5,9.9-12c1.2-4.2,2.4-8.4,3.6-12.6
		c0.8-2.8,1.6-5.7,2.4-8.5l0.2-0.6c0.1-0.4,0.3-0.9,0.4-1.3c-5.2,0-15.4-0.1-16-0.1H46.7z"/>
	<rect x="176" y="57.8" class="st0" width="10.6" height="155.3"/>
	<path class="st0" d="M200.1,115.9c-2.4-1.4-5-2.3-7.8-2.7v41.2c2.7-0.4,5.4-1.3,7.8-2.7c6.3-3.7,10.2-10.6,10.2-17.9
		C210.3,126.5,206.4,119.6,200.1,115.9z"/>
	<path class="st0" d="M59.3,100.1v71.4c5.1,0,15.3,0.1,16,0.1h0.8c36.6,0.2,69,13.1,94.2,37.4V60.4c-13.7,9.3-55.2,36.2-84.7,38.4
		C82.7,99,66,99.8,59.3,100.1z"/>
	<path class="st0" d="M53.7,100.3l-22.4,0c-7.1,0-9,1.1-9,5.2v56.8c0,9.2,4.6,9.2,10.3,9.2h21.1V100.3z"/>
</g>
</svg>
